<svg width="80" height="30" viewBox="0 0 80 30" fill="none" xmlns="http://www.w3.org/2000/svg">
<path d="M78.5284 29.2773H1.73901V29.7413H78.5284V29.2773Z" fill="#1B3D66"/>
<path d="M79.2895 28.957H52.5559V30.0001H79.2895V28.957Z" fill="#F48C20"/>
<path d="M29.924 12V4.83356H27.0978V3.16813H34.7942V4.83356H31.968V12H29.924ZM34.2896 12L38.2261 3.16813H40.2448L44.1939 12H42.049L38.8191 4.20272H39.6266L36.384 12H34.2896ZM36.2578 10.1075L36.8004 8.55557H41.3425L41.8976 10.1075H36.2578ZM45.1102 12V3.16813H48.9332C49.7238 3.16813 50.4051 3.2985 50.9771 3.55925C51.5491 3.81159 51.9907 4.17748 52.3019 4.65693C52.6131 5.13637 52.7687 5.70834 52.7687 6.37283C52.7687 7.02892 52.6131 7.59668 52.3019 8.07612C51.9907 8.54716 51.5491 8.90884 50.9771 9.16118C50.4051 9.41352 49.7238 9.53969 48.9332 9.53969H46.2457L47.1542 8.64389V12H45.1102ZM50.7248 12L48.5168 8.79529H50.6995L52.9327 12H50.7248ZM47.1542 8.87099L46.2457 7.9121H48.8196C49.4505 7.9121 49.9215 7.77752 50.2327 7.50836C50.5439 7.23079 50.6995 6.85228 50.6995 6.37283C50.6995 5.88498 50.5439 5.50647 50.2327 5.23731C49.9215 4.96815 49.4505 4.83356 48.8196 4.83356H46.2457L47.1542 3.86206V8.87099Z" fill="#F17523"/>
<path d="M5.96627 25.1729C5.28496 25.1729 4.6499 25.0635 4.06111 24.8448C3.48073 24.6177 2.97605 24.2981 2.54708 23.886C2.1181 23.4738 1.78165 22.9902 1.53772 22.435C1.3022 21.8799 1.18444 21.27 1.18444 20.6055C1.18444 19.9411 1.3022 19.3312 1.53772 18.7761C1.78165 18.2209 2.1181 17.7373 2.54708 17.3251C2.98446 16.913 3.49335 16.5976 4.07373 16.3789C4.65411 16.1518 5.28916 16.0382 5.97889 16.0382C6.74432 16.0382 7.43405 16.1728 8.04807 16.4419C8.67051 16.7027 9.19201 17.0896 9.61258 17.6027L8.30041 18.8139C7.99761 18.4691 7.66115 18.2125 7.29105 18.0443C6.92096 17.8677 6.51721 17.7793 6.07983 17.7793C5.66767 17.7793 5.28916 17.8466 4.9443 17.9812C4.59944 18.1158 4.30083 18.3093 4.0485 18.5616C3.79616 18.8139 3.59849 19.1125 3.4555 19.4574C3.32092 19.8023 3.25363 20.185 3.25363 20.6055C3.25363 21.0261 3.32092 21.4088 3.4555 21.7537C3.59849 22.0986 3.79616 22.3972 4.0485 22.6495C4.30083 22.9018 4.59944 23.0953 4.9443 23.2299C5.28916 23.3645 5.66767 23.4317 6.07983 23.4317C6.51721 23.4317 6.92096 23.3476 7.29105 23.1794C7.66115 23.0028 7.99761 22.7378 8.30041 22.3845L9.61258 23.5958C9.19201 24.1089 8.67051 24.5 8.04807 24.7691C7.43405 25.0383 6.74011 25.1729 5.96627 25.1729ZM15.0978 25.1729C14.3997 25.1729 13.752 25.0593 13.1548 24.8322C12.566 24.6051 12.0529 24.2855 11.6155 23.8733C11.1865 23.4612 10.8501 22.9775 10.6062 22.4224C10.3706 21.8672 10.2529 21.2616 10.2529 20.6055C10.2529 19.9495 10.3706 19.3439 10.6062 18.7887C10.8501 18.2336 11.1907 17.7499 11.6281 17.3378C12.0655 16.9256 12.5786 16.606 13.1674 16.3789C13.7562 16.1518 14.3955 16.0382 15.0852 16.0382C15.7833 16.0382 16.4226 16.1518 17.003 16.3789C17.5918 16.606 18.1006 16.9256 18.5296 17.3378C18.967 17.7499 19.3077 18.2336 19.5516 18.7887C19.7955 19.3354 19.9175 19.9411 19.9175 20.6055C19.9175 21.2616 19.7955 21.8714 19.5516 22.435C19.3077 22.9902 18.967 23.4738 18.5296 23.886C18.1006 24.2897 17.5918 24.6051 17.003 24.8322C16.4226 25.0593 15.7875 25.1729 15.0978 25.1729ZM15.0852 23.4317C15.4805 23.4317 15.8422 23.3645 16.1702 23.2299C16.5067 23.0953 16.8011 22.9018 17.0534 22.6495C17.3058 22.3972 17.4992 22.0986 17.6338 21.7537C17.7768 21.4088 17.8483 21.0261 17.8483 20.6055C17.8483 20.185 17.7768 19.8023 17.6338 19.4574C17.4992 19.1125 17.3058 18.8139 17.0534 18.5616C16.8095 18.3093 16.5193 18.1158 16.1829 17.9812C15.8464 17.8466 15.4805 17.7793 15.0852 17.7793C14.6899 17.7793 14.324 17.8466 13.9875 17.9812C13.6595 18.1158 13.3693 18.3093 13.1169 18.5616C12.8646 18.8139 12.6669 19.1125 12.5239 19.4574C12.3894 19.8023 12.3221 20.185 12.3221 20.6055C12.3221 21.0177 12.3894 21.4004 12.5239 21.7537C12.6669 22.0986 12.8604 22.3972 13.1043 22.6495C13.3567 22.9018 13.6511 23.0953 13.9875 23.2299C14.324 23.3645 14.6899 23.4317 15.0852 23.4317ZM21.4536 25.0215V16.1896H23.1443L28.3551 22.5486H27.535V16.1896H29.5537V25.0215H27.8756L22.6522 18.6625H23.4723V25.0215H21.4536ZM33.4727 25.0215V17.855H30.6465V16.1896H38.3429V17.855H35.5167V25.0215H33.4727ZM37.8383 25.0215L41.7748 16.1896H43.7935L47.7426 25.0215H45.5977L42.3678 17.2242H43.1753L39.9327 25.0215H37.8383ZM39.8065 23.1289L40.3491 21.5771H44.8912L45.4463 23.1289H39.8065ZM48.6589 25.0215V16.1896H50.7029V25.0215H48.6589ZM52.7989 25.0215V16.1896H54.4895L59.7003 22.5486H58.8802V16.1896H60.899V25.0215H59.2209L53.9975 18.6625H54.8176V25.0215H52.7989ZM64.8685 19.7476H69.1204V21.3373H64.8685V19.7476ZM65.0199 23.3813H69.8269V25.0215H62.9885V16.1896H69.6629V17.8298H65.0199V23.3813ZM71.4532 25.0215V16.1896H75.2762C76.0668 16.1896 76.7482 16.32 77.3201 16.5807C77.8921 16.8331 78.3337 17.199 78.6449 17.6784C78.9561 18.1579 79.1117 18.7298 79.1117 19.3943C79.1117 20.0504 78.9561 20.6182 78.6449 21.0976C78.3337 21.5686 77.8921 21.9303 77.3201 22.1827C76.7482 22.435 76.0668 22.5612 75.2762 22.5612H72.5888L73.4972 21.6654V25.0215H71.4532ZM77.0678 25.0215L74.8598 21.8168H77.0426L79.2758 25.0215H77.0678ZM73.4972 21.8925L72.5888 20.9336H75.1626C75.7935 20.9336 76.2645 20.799 76.5757 20.5298C76.887 20.2523 77.0426 19.8738 77.0426 19.3943C77.0426 18.9065 76.887 18.528 76.5757 18.2588C76.2645 17.9896 75.7935 17.855 75.1626 17.855H72.5888L73.4972 16.8835V21.8925Z" fill="#1B3D66"/>
</svg>
