<svg width="107" height="41" viewBox="0 0 107 41" fill="none" xmlns="http://www.w3.org/2000/svg">
<path d="M104.845 39.6406H1.41016V40.2656H104.845V39.6406Z" fill="white" fill-opacity="0.7"/>
<path d="M105.87 39.2109H69.8599V40.6159H105.87V39.2109Z" fill="white"/>
<path d="M39.3749 17.2051V7.55192H35.568V5.30858H45.9349V7.55192H42.1281V17.2051H39.3749ZM45.2553 17.2051L50.5577 5.30858H53.2769L58.5963 17.2051H55.7072L51.3565 6.70217H52.4441L48.0764 17.2051H45.2553ZM47.9065 14.6558L48.6373 12.5654H54.7555L55.5032 14.6558H47.9065ZM59.8306 17.2051V5.30858H64.9801C66.0451 5.30858 66.9628 5.48419 67.7333 5.83542C68.5037 6.17532 69.0985 6.66818 69.5178 7.31399C69.937 7.9598 70.1466 8.73024 70.1466 9.62531C70.1466 10.509 69.937 11.2738 69.5178 11.9196C69.0985 12.5541 68.5037 13.0413 67.7333 13.3812C66.9628 13.7211 66.0451 13.8911 64.9801 13.8911H61.3602L62.5838 12.6844V17.2051H59.8306ZM67.3934 17.2051L64.4193 12.8883H67.3594L70.3675 17.2051H67.3934ZM62.5838 12.9903L61.3602 11.6987H64.8271C65.6769 11.6987 66.3114 11.5174 66.7306 11.1549C67.1498 10.781 67.3594 10.2711 67.3594 9.62531C67.3594 8.96817 67.1498 8.45832 66.7306 8.09576C66.3114 7.7332 65.6769 7.55192 64.8271 7.55192H61.3602L62.5838 6.2433V12.9903Z" fill="white" fill-opacity="0.9"/>
<path d="M7.10391 34.95C6.18618 34.95 5.33077 34.8027 4.53767 34.5082C3.7559 34.2023 3.0761 33.7717 2.49827 33.2165C1.92044 32.6614 1.46724 32.0099 1.13867 31.2621C0.821425 30.5143 0.662805 29.6929 0.662805 28.7978C0.662805 27.9028 0.821425 27.0813 1.13867 26.3336C1.46724 25.5858 1.92044 24.9343 2.49827 24.3791C3.08743 23.824 3.77289 23.3991 4.55466 23.1045C5.33643 22.7986 6.19185 22.6457 7.12091 22.6457C8.15194 22.6457 9.081 22.8269 9.90809 23.1895C10.7465 23.5407 11.449 24.0619 12.0155 24.753L10.248 26.3846C9.84011 25.92 9.38691 25.5745 8.88839 25.3479C8.38987 25.1099 7.84603 24.991 7.25687 24.991C6.7017 24.991 6.19185 25.0816 5.72732 25.2629C5.26279 25.4442 4.86057 25.7048 4.52067 26.0447C4.18077 26.3846 3.91452 26.7868 3.72191 27.2513C3.54063 27.7158 3.44999 28.2313 3.44999 28.7978C3.44999 29.3643 3.54063 29.8799 3.72191 30.3444C3.91452 30.8089 4.18077 31.2111 4.52067 31.551C4.86057 31.8909 5.26279 32.1515 5.72732 32.3328C6.19185 32.5141 6.7017 32.6047 7.25687 32.6047C7.84603 32.6047 8.38987 32.4914 8.88839 32.2648C9.38691 32.0269 9.84011 31.67 10.248 31.1941L12.0155 32.8257C11.449 33.5168 10.7465 34.0436 9.90809 34.4062C9.081 34.7688 8.14627 34.95 7.10391 34.95ZM19.404 34.95C18.4637 34.95 17.5912 34.7971 16.7868 34.4912C15.9937 34.1853 15.3026 33.7547 14.7134 33.1995C14.1356 32.6444 13.6824 31.9929 13.3538 31.2451C13.0366 30.4973 12.878 29.6816 12.878 28.7978C12.878 27.9141 13.0366 27.0983 13.3538 26.3506C13.6824 25.6028 14.1413 24.9513 14.7304 24.3961C15.3196 23.841 16.0107 23.4104 16.8038 23.1045C17.5969 22.7986 18.458 22.6457 19.387 22.6457C20.3274 22.6457 21.1885 22.7986 21.9703 23.1045C22.7634 23.4104 23.4489 23.841 24.0267 24.3961C24.6158 24.9513 25.0747 25.6028 25.4033 26.3506C25.7318 27.087 25.8961 27.9028 25.8961 28.7978C25.8961 29.6816 25.7318 30.503 25.4033 31.2621C25.0747 32.0099 24.6158 32.6614 24.0267 33.2165C23.4489 33.7604 22.7634 34.1853 21.9703 34.4912C21.1885 34.7971 20.3331 34.95 19.404 34.95ZM19.387 32.6047C19.9196 32.6047 20.4067 32.5141 20.8486 32.3328C21.3018 32.1515 21.6984 31.8909 22.0383 31.551C22.3782 31.2111 22.6388 30.8089 22.82 30.3444C23.0126 29.8799 23.109 29.3643 23.109 28.7978C23.109 28.2313 23.0126 27.7158 22.82 27.2513C22.6388 26.7868 22.3782 26.3846 22.0383 26.0447C21.7097 25.7048 21.3188 25.4442 20.8656 25.2629C20.4124 25.0816 19.9196 24.991 19.387 24.991C18.8545 24.991 18.3617 25.0816 17.9085 25.2629C17.4666 25.4442 17.0757 25.7048 16.7358 26.0447C16.3959 26.3846 16.1297 26.7868 15.9371 27.2513C15.7558 27.7158 15.6651 28.2313 15.6651 28.7978C15.6651 29.353 15.7558 29.8685 15.9371 30.3444C16.1297 30.8089 16.3903 31.2111 16.7188 31.551C17.0587 31.8909 17.4553 32.1515 17.9085 32.3328C18.3617 32.5141 18.8545 32.6047 19.387 32.6047ZM27.9653 34.7461V22.8496H30.2426L37.2615 31.4151H36.1569V22.8496H38.8761V34.7461H36.6157L29.5798 26.1806H30.6845V34.7461H27.9653ZM44.155 34.7461V25.0929H40.3481V22.8496H50.7151V25.0929H46.9082V34.7461H44.155ZM50.0354 34.7461L55.3378 22.8496H58.057L63.3765 34.7461H60.4873L56.1366 24.2432H57.2243L52.8566 34.7461H50.0354ZM52.6866 32.1968L53.4174 30.1065H59.5356L60.2834 32.1968H52.6866ZM64.6107 34.7461V22.8496H67.3639V34.7461H64.6107ZM70.1872 34.7461V22.8496H72.4646L79.4835 31.4151H78.3788V22.8496H81.098V34.7461H78.8377L71.8018 26.1806H72.9064V34.7461H70.1872ZM86.4449 27.6422H92.1723V29.7836H86.4449V27.6422ZM86.6489 32.5367H93.124V34.7461H83.9127V22.8496H92.903V25.0589H86.6489V32.5367ZM95.3146 34.7461V22.8496H100.464C101.529 22.8496 102.447 23.0252 103.217 23.3764C103.988 23.7163 104.583 24.2092 105.002 24.855C105.421 25.5008 105.631 26.2713 105.631 27.1663C105.631 28.0501 105.421 28.8148 105.002 29.4606C104.583 30.0951 103.988 30.5823 103.217 30.9222C102.447 31.2621 101.529 31.4321 100.464 31.4321H96.8441L98.0678 30.2254V34.7461H95.3146ZM102.877 34.7461L99.9033 30.4294H102.843L105.852 34.7461H102.877ZM98.0678 30.5313L96.8441 29.2397H100.311C101.161 29.2397 101.795 29.0584 102.215 28.6959C102.634 28.322 102.843 27.8121 102.843 27.1663C102.843 26.5092 102.634 25.9993 102.215 25.6368C101.795 25.2742 101.161 25.0929 100.311 25.0929H96.8441L98.0678 23.7843V30.5313Z" fill="white"/>
</svg>
