<svg width="283" height="43" viewBox="0 0 283 43" fill="none" xmlns="http://www.w3.org/2000/svg">
<path d="M236.84 40.6406H7.44043V41.5706H236.84V40.6406Z" fill="white"/>
<path d="M281.03 40H227.39V42.09H281.03V40Z" fill="#F48C20"/>
<path d="M7.43964 32V13.4662H0.13052V9.159H20.0348V13.4662H12.7257V32H7.43964ZM18.7299 32L28.9104 9.159H34.1312L44.3444 32H38.7973L30.444 11.8347H32.5324L24.1465 32H18.7299ZM23.8202 27.1055L25.2232 23.092H36.97L38.4058 27.1055H23.8202ZM46.7142 32V9.159H56.6011C58.6459 9.159 60.4079 9.49617 61.8871 10.1705C63.3664 10.8231 64.5084 11.7694 65.3133 13.0093C66.1182 14.2493 66.5206 15.7285 66.5206 17.447C66.5206 19.1438 66.1182 20.6121 65.3133 21.8521C64.5084 23.0703 63.3664 24.0056 61.8871 24.6582C60.4079 25.3108 58.6459 25.6371 56.6011 25.6371H49.6509L52.0002 23.3204V32H46.7142ZM61.2345 32L55.5243 23.712H61.1693L66.9448 32H61.2345ZM52.0002 23.9078L49.6509 21.4279H56.3074C57.9389 21.4279 59.1571 21.0798 59.962 20.3837C60.7668 19.6659 61.1693 18.687 61.1693 17.447C61.1693 16.1853 60.7668 15.2064 59.962 14.5103C59.1571 13.8142 57.9389 13.4662 56.3074 13.4662H49.6509L52.0002 10.9536V23.9078Z" fill="#F17523"/>
<path d="M91.4196 32.3916C89.6576 32.3916 88.0152 32.1088 86.4925 31.5432C84.9915 30.9558 83.6863 30.1292 82.5769 29.0633C81.4675 27.9974 80.5973 26.7466 79.9665 25.3108C79.3574 23.8751 79.0528 22.298 79.0528 20.5795C79.0528 18.861 79.3574 17.2839 79.9665 15.8481C80.5973 14.4124 81.4675 13.1616 82.5769 12.0957C83.7081 11.0298 85.0241 10.214 86.5251 9.64845C88.0261 9.06111 89.6685 8.76744 91.4522 8.76744C93.4318 8.76744 95.2156 9.11549 96.8036 9.8116C98.4133 10.486 99.762 11.4866 100.85 12.8136L97.4562 15.946C96.673 15.0542 95.8029 14.3907 94.8458 13.9556C93.8886 13.4988 92.8445 13.2704 91.7133 13.2704C90.6474 13.2704 89.6685 13.4444 88.7766 13.7925C87.8847 14.1405 87.1125 14.6408 86.4599 15.2934C85.8073 15.946 85.2961 16.7183 84.9262 17.6102C84.5782 18.5021 84.4042 19.4918 84.4042 20.5795C84.4042 21.6672 84.5782 22.6569 84.9262 23.5488C85.2961 24.4407 85.8073 25.213 86.4599 25.8656C87.1125 26.5182 87.8847 27.0185 88.7766 27.3665C89.6685 27.7146 90.6474 27.8886 91.7133 27.8886C92.8445 27.8886 93.8886 27.6711 94.8458 27.236C95.8029 26.7792 96.673 26.094 97.4562 25.1803L100.85 28.3128C99.762 29.6398 98.4133 30.6513 96.8036 31.3474C95.2156 32.0435 93.4209 32.3916 91.4196 32.3916ZM115.036 32.3916C113.23 32.3916 111.555 32.0979 110.011 31.5105C108.488 30.9232 107.161 30.0966 106.03 29.0307C104.92 27.9648 104.05 26.7139 103.419 25.2782C102.81 23.8425 102.506 22.2763 102.506 20.5795C102.506 18.8827 102.81 17.3165 103.419 15.8808C104.05 14.4451 104.931 13.1942 106.062 12.1283C107.194 11.0624 108.52 10.2358 110.043 9.64845C111.566 9.06111 113.219 8.76744 115.003 8.76744C116.808 8.76744 118.462 9.06111 119.963 9.64845C121.485 10.2358 122.802 11.0624 123.911 12.1283C125.042 13.1942 125.923 14.4451 126.554 15.8808C127.185 17.2947 127.5 18.861 127.5 20.5795C127.5 22.2763 127.185 23.8534 126.554 25.3108C125.923 26.7466 125.042 27.9974 123.911 29.0633C122.802 30.1075 121.485 30.9232 119.963 31.5105C118.462 32.0979 116.819 32.3916 115.036 32.3916ZM115.003 27.8886C116.025 27.8886 116.961 27.7146 117.809 27.3665C118.679 27.0185 119.441 26.5182 120.093 25.8656C120.746 25.213 121.246 24.4407 121.594 23.5488C121.964 22.6569 122.149 21.6672 122.149 20.5795C122.149 19.4918 121.964 18.5021 121.594 17.6102C121.246 16.7183 120.746 15.946 120.093 15.2934C119.462 14.6408 118.712 14.1405 117.842 13.7925C116.972 13.4444 116.025 13.2704 115.003 13.2704C113.981 13.2704 113.034 13.4444 112.164 13.7925C111.316 14.1405 110.565 14.6408 109.913 15.2934C109.26 15.946 108.749 16.7183 108.379 17.6102C108.031 18.5021 107.857 19.4918 107.857 20.5795C107.857 21.6454 108.031 22.6352 108.379 23.5488C108.749 24.4407 109.249 25.213 109.88 25.8656C110.533 26.5182 111.294 27.0185 112.164 27.3665C113.034 27.7146 113.981 27.8886 115.003 27.8886ZM131.473 32V9.159H135.845L149.322 25.6045H147.201V9.159H152.421V32H148.082L134.573 15.5545H136.694V32H131.473ZM162.557 32V13.4662H155.248V9.159H175.152V13.4662H167.843V32H162.557ZM173.847 32L184.028 9.159H189.248L199.462 32H193.915L185.561 11.8347H187.65L179.264 32H173.847ZM178.937 27.1055L180.34 23.092H192.087L193.523 27.1055H178.937ZM201.831 32V9.159H207.117V32H201.831ZM212.538 32V9.159H216.911L230.387 25.6045H228.266V9.159H233.487V32H229.147L215.638 15.5545H217.759V32H212.538ZM243.753 18.3607H254.749V22.472H243.753V18.3607ZM244.144 27.7581H256.576V32H238.891V9.159H256.152V13.4009H244.144V27.7581ZM260.782 32V9.159H270.669C272.714 9.159 274.476 9.49617 275.955 10.1705C277.434 10.8231 278.576 11.7694 279.381 13.0093C280.186 14.2493 280.588 15.7285 280.588 17.447C280.588 19.1438 280.186 20.6121 279.381 21.8521C278.576 23.0703 277.434 24.0056 275.955 24.6582C274.476 25.3108 272.714 25.6371 270.669 25.6371H263.719L266.068 23.3204V32H260.782ZM275.302 32L269.592 23.712H275.237L281.013 32H275.302ZM266.068 23.9078L263.719 21.4279H270.375C272.007 21.4279 273.225 21.0798 274.03 20.3837C274.835 19.6659 275.237 18.687 275.237 17.447C275.237 16.1853 274.835 15.2064 274.03 14.5103C273.225 13.8142 272.007 13.4662 270.375 13.4662H263.719L266.068 10.9536V23.9078Z" fill="white"/>
</svg>
