<svg width="176" height="26" viewBox="0 0 176 26" fill="none" xmlns="http://www.w3.org/2000/svg">
<path d="M147.079 25.1035H5.37476V25.678H147.079V25.1035Z" fill="#1B3D66"/>
<path d="M174.375 24.707H141.241V25.9981H174.375V24.707Z" fill="#F48C20"/>
<path d="M5.37439 20V8.55136H0.859433V5.89076H13.1546V8.55136H8.63967V20H5.37439ZM12.3485 20L18.6372 5.89076H21.8622L28.171 20H24.7445L19.5846 7.54356H20.8746L15.6944 20H12.3485ZM15.4929 16.9766L16.3596 14.4974H23.6158L24.5026 16.9766H15.4929ZM29.6349 20V5.89076H35.7422C37.0053 5.89076 38.0937 6.09904 39.0074 6.5156C39.9212 6.91872 40.6267 7.50324 41.1238 8.26917C41.621 9.0351 41.8696 9.94885 41.8696 11.0104C41.8696 12.0585 41.621 12.9655 41.1238 13.7315C40.6267 14.484 39.9212 15.0618 39.0074 15.4649C38.0937 15.868 37.0053 16.0696 35.7422 16.0696H31.4489L32.9002 14.6385V20H29.6349ZM38.6043 20L35.077 14.8804H38.564L42.1316 20H38.6043ZM32.9002 15.0013L31.4489 13.4694H35.5608C36.5686 13.4694 37.3211 13.2544 37.8182 12.8244C38.3154 12.381 38.564 11.7763 38.564 11.0104C38.564 10.231 38.3154 9.62635 37.8182 9.19635C37.3211 8.76636 36.5686 8.55136 35.5608 8.55136H31.4489L32.9002 6.99934V15.0013Z" fill="#F17523"/>
<path d="M57.2502 20.2419C56.1618 20.2419 55.1472 20.0672 54.2066 19.7178C53.2794 19.355 52.4732 18.8444 51.7879 18.186C51.1026 17.5275 50.5651 16.7549 50.1754 15.868C49.7992 14.9811 49.611 14.0069 49.611 12.9454C49.611 11.8838 49.7992 10.9096 50.1754 10.0228C50.5651 9.13588 51.1026 8.36324 51.7879 7.7048C52.4866 7.04637 53.2996 6.54247 54.2268 6.1931C55.154 5.83029 56.1685 5.64889 57.2703 5.64889C58.4931 5.64889 59.595 5.86388 60.5759 6.29388C61.5703 6.71044 62.4034 7.32856 63.0753 8.14824L60.9791 10.0832C60.4953 9.53229 59.9578 9.12245 59.3666 8.8537C58.7753 8.57152 58.1303 8.43042 57.4316 8.43042C56.7732 8.43042 56.1685 8.53792 55.6175 8.75292C55.0666 8.96792 54.5896 9.27698 54.1865 9.6801C53.7833 10.0832 53.4676 10.5602 53.2391 11.1112C53.0241 11.6621 52.9166 12.2735 52.9166 12.9454C52.9166 13.6172 53.0241 14.2286 53.2391 14.7796C53.4676 15.3305 53.7833 15.8075 54.1865 16.2107C54.5896 16.6138 55.0666 16.9228 55.6175 17.1378C56.1685 17.3528 56.7732 17.4603 57.4316 17.4603C58.1303 17.4603 58.7753 17.326 59.3666 17.0572C59.9578 16.775 60.4953 16.3518 60.9791 15.7874L63.0753 17.7224C62.4034 18.542 61.5703 19.1669 60.5759 19.5969C59.595 20.0269 58.4864 20.2419 57.2502 20.2419ZM71.8381 20.2419C70.7228 20.2419 69.6882 20.0605 68.7341 19.6977C67.7935 19.3349 66.9738 18.8242 66.2751 18.1658C65.5898 17.5074 65.0523 16.7347 64.6626 15.8479C64.2863 14.961 64.0982 13.9935 64.0982 12.9454C64.0982 11.8973 64.2863 10.9298 64.6626 10.0429C65.0523 9.15604 65.5965 8.38339 66.2952 7.72496C66.994 7.06653 67.8136 6.55591 68.7543 6.1931C69.6949 5.83029 70.7161 5.64889 71.818 5.64889C72.9333 5.64889 73.9545 5.83029 74.8817 6.1931C75.8223 6.55591 76.6353 7.06653 77.3206 7.72496C78.0193 8.38339 78.5635 9.15604 78.9532 10.0429C79.3429 10.9163 79.5377 11.8838 79.5377 12.9454C79.5377 13.9935 79.3429 14.9677 78.9532 15.868C78.5635 16.7549 78.0193 17.5275 77.3206 18.186C76.6353 18.8309 75.8223 19.3349 74.8817 19.6977C73.9545 20.0605 72.94 20.2419 71.8381 20.2419ZM71.818 17.4603C72.4495 17.4603 73.0273 17.3528 73.5514 17.1378C74.0889 16.9228 74.5592 16.6138 74.9623 16.2107C75.3654 15.8075 75.6745 15.3305 75.8895 14.7796C76.1179 14.2286 76.2322 13.6172 76.2322 12.9454C76.2322 12.2735 76.1179 11.6621 75.8895 11.1112C75.6745 10.5602 75.3654 10.0832 74.9623 9.6801C74.5726 9.27698 74.109 8.96792 73.5716 8.75292C73.0341 8.53792 72.4495 8.43042 71.818 8.43042C71.1864 8.43042 70.6019 8.53792 70.0644 8.75292C69.5403 8.96792 69.0768 9.27698 68.6736 9.6801C68.2705 10.0832 67.9547 10.5602 67.7263 11.1112C67.5113 11.6621 67.4038 12.2735 67.4038 12.9454C67.4038 13.6038 67.5113 14.2152 67.7263 14.7796C67.9547 15.3305 68.2638 15.8075 68.6535 16.2107C69.0566 16.6138 69.5269 16.9228 70.0644 17.1378C70.6019 17.3528 71.1864 17.4603 71.818 17.4603ZM81.9917 20V5.89076H84.6927L93.0171 16.0494H91.707V5.89076H94.9319V20H92.2512L83.9066 9.84135H85.2167V20H81.9917ZM101.193 20V8.55136H96.6778V5.89076H108.973V8.55136H104.458V20H101.193ZM108.167 20L114.456 5.89076H117.681L123.989 20H120.563L115.403 7.54356H116.693L111.513 20H108.167ZM111.311 16.9766L112.178 14.4974H119.434L120.321 16.9766H111.311ZM125.453 20V5.89076H128.719V20H125.453ZM132.067 20V5.89076H134.768L143.092 16.0494H141.782V5.89076H145.007V20H142.326L133.982 9.84135H135.292V20H132.067ZM151.349 11.5748H158.141V14.1144H151.349V11.5748ZM151.59 17.3797H159.27V20H148.345V5.89076H159.008V8.51105H151.59V17.3797ZM161.868 20V5.89076H167.975C169.238 5.89076 170.327 6.09904 171.241 6.5156C172.154 6.91872 172.86 7.50324 173.357 8.26917C173.854 9.0351 174.103 9.94885 174.103 11.0104C174.103 12.0585 173.854 12.9655 173.357 13.7315C172.86 14.484 172.154 15.0618 171.241 15.4649C170.327 15.868 169.238 16.0696 167.975 16.0696H163.682L165.133 14.6385V20H161.868ZM170.837 20L167.31 14.8804H170.797L174.365 20H170.837ZM165.133 15.0013L163.682 13.4694H167.794C168.802 13.4694 169.554 13.2544 170.051 12.8244C170.549 12.381 170.797 11.7763 170.797 11.0104C170.797 10.231 170.549 9.62635 170.051 9.19635C169.554 8.76636 168.802 8.55136 167.794 8.55136H163.682L165.133 6.99934V15.0013Z" fill="#1B3D66"/>
</svg>
